<?xml version="1.0" encoding="utf-8"?>
<!-- Generator: Adobe Illustrator 21.0.2, SVG Export Plug-In . SVG Version: 6.00 Build 0)  -->
<svg version="1.1" id="Layer_1" xmlns="http://www.w3.org/2000/svg" xmlns:xlink="http://www.w3.org/1999/xlink" x="0px" y="0px"
	 viewBox="0 0 595.3 81.7" style="enable-background:new 0 0 595.3 81.7;" xml:space="preserve">
<style type="text/css">
	.st0{fill:#FFFFFF;}
	.st1{fill:#003399;}
	.st2{fill:#1F3D8A;}
	.st3{fill:#FFCC00;}
	.st4{fill:#FFDE18;}
</style>
<g>
	<g>
		<path class="st0" d="M421.6,27.8V11.9h11.7v2.7h-8.5v3.5h7.9v2.7h-7.9v4.3h8.8v2.7H421.6z M443.9,27.8v-1.7
			c-0.4,0.6-1,1.1-1.6,1.5c-0.7,0.4-1.4,0.5-2.1,0.5c-0.8,0-1.5-0.2-2.1-0.5s-1.1-0.8-1.3-1.4c-0.3-0.6-0.4-1.5-0.4-2.6v-7.3h3v5.3
			c0,1.6,0.1,2.6,0.2,3s0.3,0.7,0.6,0.9c0.3,0.2,0.7,0.3,1.1,0.3c0.5,0,1-0.1,1.4-0.4s0.7-0.6,0.8-1.1c0.2-0.4,0.2-1.5,0.2-3.1v-4.9
			h3v11.5C446.7,27.8,443.9,27.8,443.9,27.8z M452.7,27.8h-3V16.3h2.8v1.6c0.5-0.8,0.9-1.3,1.3-1.5s0.8-0.4,1.3-0.4
			c0.7,0,1.4,0.2,2,0.6l-0.9,2.7c-0.5-0.3-1-0.5-1.4-0.5s-0.8,0.1-1.1,0.4c-0.3,0.2-0.5,0.7-0.7,1.3c-0.2,0.6-0.3,1.9-0.3,3.9
			L452.7,27.8L452.7,27.8z M457.7,21.9c0-1,0.2-2,0.7-2.9s1.2-1.7,2.1-2.2s1.9-0.7,3-0.7c1.7,0,3.2,0.6,4.3,1.7
			c1.1,1.1,1.7,2.6,1.7,4.3c0,1.7-0.6,3.2-1.7,4.3c-1.1,1.1-2.5,1.7-4.2,1.7c-1,0-2-0.2-3-0.7s-1.7-1.2-2.2-2.1
			C457.9,24.3,457.7,23.2,457.7,21.9L457.7,21.9z M460.8,22c0,1.1,0.3,2,0.8,2.6s1.2,0.9,2,0.9s1.5-0.3,2-0.9s0.8-1.5,0.8-2.6
			s-0.3-2-0.8-2.6s-1.2-0.9-2-0.9s-1.5,0.3-2,0.9C461.1,20,460.8,20.9,460.8,22L460.8,22z M471.8,16.3h2.8V18c0.4-0.6,0.9-1,1.5-1.4
			s1.3-0.5,2.1-0.5c1.3,0,2.5,0.5,3.4,1.6c0.9,1,1.4,2.5,1.4,4.4s-0.5,3.4-1.4,4.5s-2.1,1.6-3.4,1.6c-0.6,0-1.2-0.1-1.7-0.4
			s-1.1-0.7-1.6-1.3v5.8h-3L471.8,16.3L471.8,16.3z M474.8,21.8c0,1.3,0.3,2.3,0.8,2.9s1.1,0.9,1.9,0.9c0.7,0,1.3-0.3,1.8-0.9
			s0.7-1.5,0.7-2.8c0-1.2-0.2-2.1-0.7-2.7s-1.1-0.9-1.8-0.9c-0.7,0-1.4,0.3-1.8,0.9C475,19.8,474.8,20.7,474.8,21.8L474.8,21.8z
			 M492,24.1l3,0.5c-0.4,1.1-1,2-1.8,2.5c-0.8,0.6-1.9,0.9-3.1,0.9c-2,0-3.5-0.7-4.4-2c-0.8-1-1.1-2.4-1.1-4c0-1.9,0.5-3.4,1.5-4.5
			s2.2-1.6,3.8-1.6c1.7,0,3,0.6,4,1.7s1.5,2.9,1.4,5.2h-7.6c0,0.9,0.3,1.6,0.7,2.1c0.5,0.5,1,0.8,1.7,0.8c0.5,0,0.9-0.1,1.2-0.4
			C491.6,25.1,491.8,24.7,492,24.1L492,24.1z M492.2,21c0-0.9-0.2-1.6-0.7-2c-0.4-0.5-1-0.7-1.6-0.7c-0.7,0-1.2,0.2-1.6,0.7
			s-0.6,1.1-0.6,2H492.2z M499.9,19.8l-2.7-0.5c0.3-1.1,0.8-1.9,1.6-2.5c0.8-0.5,1.9-0.8,3.4-0.8c1.4,0,2.4,0.2,3,0.5
			c0.7,0.3,1.1,0.7,1.4,1.2s0.4,1.4,0.4,2.7V24c0,1,0,1.8,0.1,2.2c0.1,0.5,0.3,1,0.5,1.5h-3c-0.1-0.2-0.2-0.5-0.3-0.9
			c-0.1-0.2-0.1-0.3-0.1-0.4c-0.5,0.5-1.1,0.9-1.7,1.1c-0.6,0.3-1.2,0.4-1.9,0.4c-1.2,0-2.1-0.3-2.8-1c-0.7-0.6-1-1.5-1-2.4
			c0-0.7,0.2-1.2,0.5-1.7s0.7-0.9,1.3-1.2c0.6-0.3,1.4-0.5,2.4-0.7c1.4-0.3,2.4-0.5,2.9-0.7V20c0-0.6-0.1-1-0.4-1.3
			c-0.3-0.2-0.8-0.4-1.6-0.4c-0.5,0-1,0.1-1.3,0.3C500.4,18.9,500.1,19.2,499.9,19.8L499.9,19.8z M504,22.2c-0.4,0.1-1,0.3-1.8,0.5
			s-1.4,0.4-1.6,0.5c-0.4,0.3-0.6,0.6-0.6,1.1c0,0.4,0.2,0.8,0.5,1.1c0.3,0.3,0.7,0.5,1.2,0.5s1.1-0.2,1.6-0.5
			c0.4-0.3,0.6-0.6,0.7-1c0.1-0.3,0.1-0.8,0.1-1.5v-0.7H504z M520.4,27.8h-3v-5.9c0-1.2-0.1-2-0.2-2.4c-0.1-0.4-0.3-0.6-0.6-0.9
			c-0.3-0.2-0.6-0.3-1.1-0.3s-1,0.1-1.4,0.4s-0.7,0.7-0.9,1.2s-0.2,1.4-0.2,2.6v5.2h-3V16.3h2.8V18c1-1.3,2.3-2,3.8-2
			c0.7,0,1.3,0.1,1.8,0.4c0.6,0.2,1,0.6,1.3,0.9c0.3,0.4,0.5,0.8,0.6,1.3s0.2,1.2,0.2,2.1L520.4,27.8L520.4,27.8z M529.6,11.9h3.2
			v8.6c0,1.4,0,2.3,0.1,2.7c0.1,0.7,0.5,1.2,1,1.6s1.2,0.6,2.1,0.6c0.9,0,1.6-0.2,2-0.6c0.5-0.4,0.7-0.8,0.8-1.4
			c0.1-0.5,0.1-1.4,0.1-2.7v-8.8h3.2v8.4c0,1.9-0.1,3.3-0.3,4c-0.2,0.8-0.5,1.5-1,2s-1.1,1-1.9,1.3c-0.8,0.3-1.8,0.5-3,0.5
			c-1.5,0-2.7-0.2-3.4-0.5c-0.8-0.4-1.4-0.8-1.8-1.4c-0.5-0.6-0.8-1.1-0.9-1.8c-0.2-0.9-0.3-2.3-0.3-4v-8.5H529.6z M555.9,27.8h-3
			v-5.9c0-1.2-0.1-2-0.2-2.4c-0.1-0.4-0.3-0.6-0.6-0.9c-0.3-0.2-0.6-0.3-1.1-0.3s-1,0.1-1.4,0.4s-0.7,0.7-0.9,1.2s-0.2,1.4-0.2,2.6
			v5.2h-3V16.3h2.8V18c1-1.3,2.3-2,3.8-2c0.7,0,1.3,0.1,1.8,0.4c0.6,0.2,1,0.6,1.3,0.9c0.3,0.4,0.5,0.8,0.6,1.3s0.2,1.2,0.2,2.1
			L555.9,27.8L555.9,27.8z M559,14.7v-2.8h3v2.8H559z M559,27.8V16.3h3v11.5H559z M564.4,21.9c0-1,0.2-2,0.7-2.9s1.2-1.7,2.1-2.2
			c0.9-0.5,1.9-0.7,3-0.7c1.7,0,3.2,0.6,4.3,1.7s1.7,2.6,1.7,4.3c0,1.7-0.6,3.2-1.7,4.3c-1.1,1.1-2.5,1.7-4.2,1.7c-1,0-2-0.2-3-0.7
			s-1.7-1.2-2.2-2.1C564.7,24.3,564.4,23.2,564.4,21.9L564.4,21.9z M567.5,22c0,1.1,0.3,2,0.8,2.6s1.2,0.9,2,0.9s1.5-0.3,2-0.9
			s0.8-1.5,0.8-2.6s-0.3-2-0.8-2.6s-1.2-0.9-2-0.9s-1.5,0.3-2,0.9S567.5,20.9,567.5,22L567.5,22z M589,27.8h-3v-5.9
			c0-1.2-0.1-2-0.2-2.4c-0.1-0.4-0.3-0.6-0.6-0.9c-0.3-0.2-0.6-0.3-1.1-0.3s-1,0.1-1.4,0.4s-0.7,0.7-0.9,1.2s-0.2,1.4-0.2,2.6v5.2
			h-3V16.3h2.8V18c1-1.3,2.3-2,3.8-2c0.7,0,1.3,0.1,1.8,0.4c0.6,0.2,1,0.6,1.3,0.9c0.3,0.4,0.5,0.8,0.6,1.3s0.2,1.2,0.2,2.1
			L589,27.8L589,27.8z"/>
		<path class="st0" d="M422.1,50.6V39.1h8.3v1.4h-6.8V44h6.3v1.3h-6.3v3.9h7v1.4C430.6,50.6,422.1,50.6,422.1,50.6z M438,50.6v-1.2
			c-0.6,0.9-1.5,1.4-2.6,1.4c-0.5,0-0.9-0.1-1.4-0.3c-0.4-0.2-0.7-0.4-0.9-0.7c-0.2-0.3-0.4-0.6-0.4-1c-0.1-0.3-0.1-0.7-0.1-1.3
			v-5.2h1.4v4.6c0,0.7,0,1.2,0.1,1.5c0.1,0.4,0.3,0.7,0.6,0.9c0.3,0.2,0.6,0.3,1.1,0.3c0.4,0,0.8-0.1,1.2-0.3
			c0.4-0.2,0.6-0.5,0.8-0.9c0.2-0.4,0.2-0.9,0.2-1.6v-4.5h1.4v8.3H438z M441.5,50.6v-8.3h1.3v1.3c0.3-0.6,0.6-1,0.9-1.2
			s0.6-0.3,0.9-0.3c0.5,0,1,0.2,1.4,0.5l-0.5,1.3c-0.3-0.2-0.7-0.3-1-0.3s-0.6,0.1-0.8,0.3c-0.2,0.2-0.4,0.4-0.5,0.8
			c-0.2,0.5-0.2,1.1-0.2,1.6v4.4L441.5,50.6L441.5,50.6z M446.3,46.4c0-1.5,0.4-2.7,1.3-3.4c0.7-0.6,1.6-0.9,2.6-0.9
			c1.1,0,2.1,0.4,2.8,1.1c0.7,0.8,1.1,1.8,1.1,3.1c0,1.1-0.2,1.9-0.5,2.5s-0.8,1.1-1.4,1.4c-0.6,0.3-1.3,0.5-2,0.5
			c-1.2,0-2.1-0.4-2.8-1.1S446.3,47.8,446.3,46.4L446.3,46.4z M447.8,46.4c0,1.1,0.2,1.9,0.7,2.4s1,0.8,1.8,0.8
			c0.7,0,1.3-0.3,1.7-0.8c0.5-0.5,0.7-1.3,0.7-2.4c0-1-0.2-1.8-0.7-2.3s-1-0.8-1.7-0.8s-1.3,0.3-1.8,0.8
			C448,44.6,447.8,45.4,447.8,46.4L447.8,46.4z M455.8,53.8V42.3h1.3v1.1c0.3-0.4,0.6-0.7,1-1c0.4-0.2,0.8-0.3,1.4-0.3
			c0.7,0,1.3,0.2,1.9,0.5c0.5,0.4,1,0.9,1.2,1.5c0.3,0.7,0.4,1.4,0.4,2.2c0,0.9-0.2,1.6-0.5,2.3s-0.7,1.2-1.3,1.6
			c-0.6,0.4-1.2,0.5-1.8,0.5c-0.5,0-0.9-0.1-1.3-0.3s-0.7-0.4-0.9-0.8v4.1h-1.4V53.8z M457,46.5c0,1.1,0.2,1.9,0.6,2.4
			s1,0.8,1.6,0.8s1.2-0.3,1.6-0.8s0.7-1.4,0.7-2.5s-0.2-1.9-0.7-2.4c-0.4-0.5-1-0.8-1.6-0.8s-1.1,0.3-1.6,0.8
			C457.3,44.6,457,45.4,457,46.5L457,46.5z M470.4,47.9l1.5,0.2c-0.2,0.9-0.7,1.5-1.3,2c-0.6,0.5-1.4,0.7-2.4,0.7
			c-1.2,0-2.2-0.4-2.9-1.1c-0.7-0.8-1.1-1.8-1.1-3.2s0.4-2.5,1.1-3.3s1.7-1.2,2.8-1.2c1.1,0,2,0.4,2.7,1.1c0.7,0.8,1.1,1.8,1.1,3.2
			c0,0.1,0,0.2,0,0.4h-6.2c0.1,0.9,0.3,1.6,0.8,2.1s1,0.7,1.7,0.7c0.5,0,1-0.1,1.3-0.4C469.9,48.9,470.1,48.5,470.4,47.9L470.4,47.9
			z M465.7,45.6h4.6c-0.1-0.7-0.2-1.2-0.5-1.6c-0.4-0.5-1-0.8-1.7-0.8c-0.6,0-1.2,0.2-1.6,0.7C466,44.3,465.8,44.9,465.7,45.6
			L465.7,45.6z M479,49.6c-0.5,0.4-1,0.8-1.5,0.9c-0.5,0.2-1,0.3-1.6,0.3c-0.9,0-1.6-0.2-2.1-0.7c-0.5-0.4-0.7-1-0.7-1.7
			c0-0.4,0.1-0.8,0.3-1.1c0.2-0.3,0.4-0.6,0.7-0.8c0.3-0.2,0.6-0.4,1-0.5c0.3-0.1,0.7-0.1,1.3-0.2c1.1-0.1,2-0.3,2.5-0.5
			c0-0.2,0-0.3,0-0.4c0-0.6-0.1-1-0.4-1.2c-0.4-0.3-0.9-0.5-1.6-0.5s-1.2,0.1-1.5,0.3s-0.5,0.6-0.7,1.2l-1.4-0.2
			c0.1-0.6,0.3-1.1,0.6-1.4c0.3-0.4,0.7-0.6,1.2-0.8s1.2-0.3,1.9-0.3c0.7,0,1.3,0.1,1.7,0.3c0.4,0.2,0.8,0.4,1,0.6
			c0.2,0.3,0.4,0.6,0.4,1c0,0.2,0.1,0.7,0.1,1.3v1.9c0,1.3,0,2.1,0.1,2.5c0.1,0.3,0.2,0.7,0.4,1h-1.5C479.1,50.3,479,50,479,49.6
			L479,49.6z M478.9,46.4c-0.5,0.2-1.3,0.4-2.3,0.5c-0.6,0.1-1,0.2-1.2,0.3s-0.4,0.3-0.6,0.5c-0.1,0.2-0.2,0.4-0.2,0.7
			c0,0.4,0.1,0.7,0.4,0.9c0.3,0.3,0.7,0.4,1.2,0.4s1-0.1,1.4-0.4c0.4-0.2,0.7-0.6,0.9-1c0.2-0.3,0.2-0.8,0.2-1.4v-0.5H478.9z
			 M482.5,50.6v-8.3h1.3v1.2c0.6-0.9,1.5-1.4,2.6-1.4c0.5,0,1,0.1,1.4,0.3s0.7,0.4,0.9,0.7c0.2,0.3,0.4,0.6,0.4,1
			c0.1,0.3,0.1,0.7,0.1,1.4v5.1h-1.4v-5.1c0-0.6-0.1-1-0.2-1.3s-0.3-0.5-0.6-0.7c-0.3-0.2-0.6-0.3-1-0.3c-0.6,0-1.1,0.2-1.6,0.6
			c-0.4,0.4-0.7,1.1-0.7,2.2v4.6H482.5z M496.1,50.6V39.1h5.1c1,0,1.8,0.1,2.3,0.3s1,0.6,1.3,1.1s0.5,1.1,0.5,1.7
			c0,0.8-0.3,1.5-0.8,2.1s-1.3,0.9-2.4,1.1c0.4,0.2,0.7,0.4,0.9,0.6c0.4,0.4,0.9,0.9,1.3,1.5l2,3.1h-1.9l-1.5-2.4
			c-0.4-0.7-0.8-1.2-1.1-1.6c-0.3-0.4-0.5-0.6-0.8-0.8c-0.2-0.1-0.5-0.2-0.7-0.3c-0.2,0-0.5-0.1-0.8-0.1h-1.8v5.1h-1.6V50.6z
			 M497.6,44.2h3.3c0.7,0,1.2-0.1,1.6-0.2c0.4-0.1,0.7-0.4,0.9-0.7c0.2-0.3,0.3-0.7,0.3-1c0-0.5-0.2-1-0.6-1.3
			c-0.4-0.4-1-0.5-1.9-0.5h-3.6L497.6,44.2L497.6,44.2z M513.1,47.9l1.5,0.2c-0.2,0.9-0.7,1.5-1.3,2s-1.4,0.7-2.4,0.7
			c-1.2,0-2.2-0.4-2.9-1.1c-0.7-0.8-1.1-1.8-1.1-3.2s0.4-2.5,1.1-3.3s1.7-1.2,2.8-1.2c1.1,0,2,0.4,2.7,1.1c0.7,0.8,1.1,1.8,1.1,3.2
			c0,0.1,0,0.2,0,0.4h-6.2c0.1,0.9,0.3,1.6,0.8,2.1s1,0.7,1.7,0.7c0.5,0,1-0.1,1.3-0.4C512.6,48.9,512.9,48.5,513.1,47.9L513.1,47.9
			z M508.5,45.6h4.6c-0.1-0.7-0.2-1.2-0.5-1.6c-0.4-0.5-1-0.8-1.7-0.8c-0.6,0-1.2,0.2-1.6,0.7C508.8,44.3,508.5,44.9,508.5,45.6
			L508.5,45.6z M516.1,51.3l1.4,0.2c0.1,0.4,0.2,0.7,0.5,0.9c0.3,0.3,0.8,0.4,1.4,0.4c0.7,0,1.2-0.1,1.5-0.4
			c0.4-0.3,0.6-0.6,0.7-1.1c0.1-0.3,0.1-0.9,0.1-1.8c-0.6,0.7-1.4,1.1-2.3,1.1c-1.1,0-2-0.4-2.7-1.2c-0.6-0.8-0.9-1.8-0.9-3
			c0-0.8,0.1-1.5,0.4-2.2c0.3-0.7,0.7-1.2,1.2-1.6c0.5-0.4,1.2-0.5,1.9-0.5c1,0,1.8,0.4,2.4,1.2v-1h1.3v7.2c0,1.3-0.1,2.2-0.4,2.8
			c-0.3,0.5-0.7,1-1.3,1.3s-1.3,0.5-2.1,0.5c-1,0-1.8-0.2-2.4-0.7C516.4,52.9,516.1,52.2,516.1,51.3L516.1,51.3z M517.3,46.3
			c0,1.1,0.2,1.9,0.6,2.4c0.4,0.5,1,0.8,1.6,0.8s1.2-0.2,1.6-0.7c0.4-0.5,0.7-1.3,0.7-2.4c0-1-0.2-1.8-0.7-2.3s-1-0.8-1.6-0.8
			s-1.2,0.3-1.6,0.8C517.5,44.5,517.3,45.3,517.3,46.3L517.3,46.3z M525.3,40.7v-1.6h1.4v1.6H525.3z M525.3,50.6v-8.3h1.4v8.3H525.3
			z M528.3,46.4c0-1.5,0.4-2.7,1.3-3.4c0.7-0.6,1.6-0.9,2.6-0.9c1.1,0,2.1,0.4,2.8,1.1c0.7,0.8,1.1,1.8,1.1,3.1
			c0,1.1-0.2,1.9-0.5,2.5s-0.8,1.1-1.4,1.4c-0.6,0.3-1.3,0.5-2,0.5c-1.2,0-2.1-0.4-2.8-1.1C528.7,48.9,528.3,47.8,528.3,46.4
			L528.3,46.4z M529.7,46.4c0,1.1,0.2,1.9,0.7,2.4s1,0.8,1.8,0.8c0.7,0,1.3-0.3,1.7-0.8c0.5-0.5,0.7-1.3,0.7-2.4
			c0-1-0.2-1.8-0.7-2.3s-1-0.8-1.7-0.8s-1.3,0.3-1.8,0.8C530,44.6,529.7,45.4,529.7,46.4L529.7,46.4z M537.7,50.6v-8.3h1.3v1.2
			c0.6-0.9,1.5-1.4,2.6-1.4c0.5,0,1,0.1,1.4,0.3s0.7,0.4,0.9,0.7s0.4,0.6,0.4,1c0.1,0.3,0.1,0.7,0.1,1.4v5.1H543v-5.1
			c0-0.6-0.1-1-0.2-1.3c-0.1-0.3-0.3-0.5-0.6-0.7s-0.6-0.3-1-0.3c-0.6,0-1.1,0.2-1.6,0.6c-0.4,0.4-0.7,1.1-0.7,2.2v4.6H537.7z
			 M552.1,49.6c-0.5,0.4-1,0.8-1.5,0.9c-0.5,0.2-1,0.3-1.6,0.3c-0.9,0-1.6-0.2-2.1-0.7c-0.5-0.4-0.7-1-0.7-1.7
			c0-0.4,0.1-0.8,0.3-1.1s0.4-0.6,0.7-0.8s0.6-0.4,1-0.5c0.3-0.1,0.7-0.1,1.3-0.2c1.1-0.1,2-0.3,2.5-0.5c0-0.2,0-0.3,0-0.4
			c0-0.6-0.1-1-0.4-1.2c-0.4-0.3-0.9-0.5-1.6-0.5c-0.7,0-1.2,0.1-1.5,0.3s-0.5,0.6-0.7,1.2l-1.4-0.2c0.1-0.6,0.3-1.1,0.6-1.4
			c0.3-0.4,0.7-0.6,1.2-0.8s1.2-0.3,1.9-0.3s1.3,0.1,1.7,0.3s0.8,0.4,1,0.6c0.2,0.3,0.4,0.6,0.4,1c0,0.2,0.1,0.7,0.1,1.3v1.9
			c0,1.3,0,2.1,0.1,2.5c0.1,0.3,0.2,0.7,0.4,1h-1.5C552.2,50.3,552.1,50,552.1,49.6L552.1,49.6z M552,46.4c-0.5,0.2-1.3,0.4-2.3,0.5
			c-0.6,0.1-1,0.2-1.2,0.3s-0.4,0.3-0.6,0.5c-0.1,0.2-0.2,0.4-0.2,0.7c0,0.4,0.1,0.7,0.4,0.9c0.3,0.3,0.7,0.4,1.2,0.4s1-0.1,1.4-0.4
			c0.4-0.2,0.7-0.6,0.9-1c0.2-0.3,0.2-0.8,0.2-1.4v-0.5H552z M555.5,50.6V39.1h1.4v11.5H555.5z"/>
		<path class="st0" d="M422.1,70.7V59.2h3.9c0.9,0,1.6,0.1,2,0.2c0.7,0.2,1.2,0.4,1.7,0.8c0.6,0.5,1.1,1.2,1.4,2s0.4,1.7,0.4,2.7
			c0,0.9-0.1,1.6-0.3,2.3c-0.2,0.7-0.5,1.2-0.8,1.7c-0.3,0.4-0.7,0.8-1,1c-0.4,0.3-0.8,0.4-1.4,0.6c-0.5,0.1-1.1,0.2-1.8,0.2H422.1z
			 M423.6,69.3h2.4c0.8,0,1.3-0.1,1.8-0.2c0.4-0.1,0.8-0.3,1-0.6c0.4-0.4,0.6-0.8,0.8-1.5c0.2-0.6,0.3-1.3,0.3-2.2
			c0-1.2-0.2-2.1-0.6-2.8c-0.4-0.6-0.9-1.1-1.4-1.3c-0.4-0.2-1.1-0.2-2-0.2h-2.4v8.8H423.6z M439.1,68l1.5,0.2
			c-0.2,0.9-0.7,1.5-1.3,2c-0.6,0.5-1.4,0.7-2.4,0.7c-1.2,0-2.2-0.4-2.9-1.1c-0.7-0.8-1.1-1.8-1.1-3.2c0-1.4,0.4-2.5,1.1-3.3
			s1.7-1.2,2.8-1.2c1.1,0,2,0.4,2.7,1.1c0.7,0.8,1.1,1.8,1.1,3.2c0,0.1,0,0.2,0,0.4h-6.2c0.1,0.9,0.3,1.6,0.8,2.1s1,0.7,1.7,0.7
			c0.5,0,1-0.1,1.3-0.4C438.6,69,438.9,68.6,439.1,68L439.1,68z M434.5,65.7h4.6c-0.1-0.7-0.2-1.2-0.5-1.6c-0.4-0.5-1-0.8-1.7-0.8
			c-0.6,0-1.2,0.2-1.6,0.7C434.8,64.4,434.6,65,434.5,65.7L434.5,65.7z M444.7,70.7l-3.2-8.3h1.5l1.8,5c0.2,0.5,0.4,1.1,0.5,1.7
			c0.1-0.4,0.3-1,0.5-1.6l1.8-5.1h1.4l-3.1,8.3H444.7z M456.1,68l1.5,0.2c-0.2,0.9-0.7,1.5-1.3,2c-0.6,0.5-1.4,0.7-2.4,0.7
			c-1.2,0-2.2-0.4-2.9-1.1c-0.7-0.8-1.1-1.8-1.1-3.2c0-1.4,0.4-2.5,1.1-3.3s1.7-1.2,2.8-1.2c1.1,0,2,0.4,2.7,1.1
			c0.7,0.8,1.1,1.8,1.1,3.2c0,0.1,0,0.2,0,0.4h-6.2c0.1,0.9,0.3,1.6,0.8,2.1s1,0.7,1.7,0.7c0.5,0,1-0.1,1.3-0.4
			C455.6,69,455.9,68.6,456.1,68L456.1,68z M451.4,65.7h4.6c-0.1-0.7-0.2-1.2-0.5-1.6c-0.4-0.5-1-0.8-1.7-0.8
			c-0.6,0-1.2,0.2-1.6,0.7C451.7,64.4,451.5,65,451.4,65.7L451.4,65.7z M459.3,70.7V59.2h1.4v11.5H459.3z M462.3,66.5
			c0-1.5,0.4-2.7,1.3-3.4c0.7-0.6,1.6-0.9,2.6-0.9c1.1,0,2.1,0.4,2.8,1.1c0.7,0.8,1.1,1.8,1.1,3.1c0,1.1-0.2,1.9-0.5,2.5
			s-0.8,1.1-1.4,1.4s-1.3,0.5-2,0.5c-1.2,0-2.1-0.4-2.8-1.1S462.3,67.9,462.3,66.5L462.3,66.5z M463.8,66.5c0,1.1,0.2,1.9,0.7,2.4
			s1,0.8,1.8,0.8c0.7,0,1.3-0.3,1.7-0.8c0.5-0.5,0.7-1.3,0.7-2.4c0-1-0.2-1.8-0.7-2.3s-1-0.8-1.7-0.8s-1.3,0.3-1.8,0.8
			S463.8,65.4,463.8,66.5L463.8,66.5z M471.8,73.9V62.3h1.3v1.1c0.3-0.4,0.6-0.7,1-1c0.4-0.2,0.8-0.3,1.4-0.3c0.7,0,1.3,0.2,1.9,0.5
			c0.5,0.4,1,0.9,1.2,1.5c0.3,0.7,0.4,1.4,0.4,2.2c0,0.9-0.2,1.6-0.5,2.3c-0.3,0.7-0.7,1.2-1.3,1.6c-0.6,0.4-1.2,0.5-1.8,0.5
			c-0.5,0-0.9-0.1-1.3-0.3c-0.4-0.2-0.7-0.4-0.9-0.8v4.1h-1.4V73.9z M473,66.6c0,1.1,0.2,1.9,0.6,2.4s1,0.8,1.6,0.8s1.2-0.3,1.6-0.8
			s0.7-1.4,0.7-2.5s-0.2-1.9-0.7-2.4c-0.4-0.5-1-0.8-1.6-0.8s-1.1,0.3-1.6,0.8C473.3,64.7,473,65.5,473,66.6L473,66.6z M480.7,70.7
			v-8.3h1.3v1.2c0.3-0.4,0.6-0.7,1-1c0.4-0.2,0.9-0.4,1.5-0.4s1.1,0.1,1.5,0.4c0.4,0.3,0.7,0.6,0.8,1.1c0.7-1,1.5-1.5,2.6-1.5
			c0.8,0,1.5,0.2,1.9,0.7s0.7,1.2,0.7,2.1v5.7h-1.4v-5.2c0-0.6,0-1-0.1-1.2s-0.3-0.4-0.5-0.6c-0.2-0.2-0.5-0.2-0.8-0.2
			c-0.6,0-1.1,0.2-1.5,0.6s-0.6,1-0.6,1.9v4.8h-1.4v-5.4c0-0.6-0.1-1.1-0.3-1.4c-0.2-0.3-0.6-0.5-1.1-0.5c-0.4,0-0.8,0.1-1.1,0.3
			c-0.3,0.2-0.6,0.5-0.7,0.9c-0.2,0.4-0.2,1-0.2,1.7v4.3C482.3,70.7,480.7,70.7,480.7,70.7z M499.7,68l1.5,0.2
			c-0.2,0.9-0.7,1.5-1.3,2c-0.6,0.5-1.4,0.7-2.4,0.7c-1.2,0-2.2-0.4-2.9-1.1c-0.7-0.8-1.1-1.8-1.1-3.2c0-1.4,0.4-2.5,1.1-3.3
			s1.7-1.2,2.8-1.2c1.1,0,2,0.4,2.7,1.1c0.7,0.8,1.1,1.8,1.1,3.2c0,0.1,0,0.2,0,0.4H495c0.1,0.9,0.3,1.6,0.8,2.1s1,0.7,1.7,0.7
			c0.5,0,1-0.1,1.3-0.4C499.2,69,499.5,68.6,499.7,68L499.7,68z M495.1,65.7h4.6c-0.1-0.7-0.2-1.2-0.5-1.6c-0.4-0.5-1-0.8-1.7-0.8
			c-0.6,0-1.2,0.2-1.6,0.7C495.4,64.4,495.2,65,495.1,65.7L495.1,65.7z M503,70.7v-8.3h1.3v1.2c0.6-0.9,1.5-1.4,2.6-1.4
			c0.5,0,1,0.1,1.4,0.3s0.7,0.4,0.9,0.7c0.2,0.3,0.4,0.6,0.4,1c0.1,0.3,0.1,0.7,0.1,1.4v5.1h-1.4v-5.1c0-0.6-0.1-1-0.2-1.3
			c-0.1-0.3-0.3-0.5-0.6-0.7c-0.3-0.2-0.6-0.3-1-0.3c-0.6,0-1.1,0.2-1.6,0.6c-0.4,0.4-0.7,1.1-0.7,2.2v4.6
			C504.2,70.7,503,70.7,503,70.7z M514.9,69.4l0.2,1.2c-0.4,0.1-0.8,0.1-1.1,0.1c-0.5,0-0.9-0.1-1.2-0.2c-0.3-0.2-0.5-0.4-0.6-0.6
			c-0.1-0.3-0.2-0.8-0.2-1.7v-4.8h-1v-1.1h1v-2.1l1.4-0.8v2.9h1.4v1.1h-1.4v4.9c0,0.4,0,0.7,0.1,0.8c0,0.1,0.1,0.2,0.2,0.3
			c0.1,0.1,0.3,0.1,0.5,0.1C514.5,69.5,514.7,69.5,514.9,69.4L514.9,69.4z M521,70.7V59.2h7.7v1.4h-6.2v3.6h5.4v1.4h-5.4v5.2H521
			V70.7z M536,70.7v-1.2c-0.6,0.9-1.5,1.4-2.6,1.4c-0.5,0-0.9-0.1-1.4-0.3c-0.4-0.2-0.7-0.4-0.9-0.7c-0.2-0.3-0.4-0.6-0.4-1
			c-0.1-0.3-0.1-0.7-0.1-1.3v-5.2h1.4V67c0,0.7,0,1.2,0.1,1.5c0.1,0.4,0.3,0.7,0.6,0.9c0.3,0.2,0.6,0.3,1.1,0.3
			c0.4,0,0.8-0.1,1.2-0.3c0.4-0.2,0.6-0.5,0.8-0.9s0.2-0.9,0.2-1.6v-4.5h1.4v8.3C537.4,70.7,536,70.7,536,70.7z M539.5,70.7v-8.3
			h1.3v1.2c0.6-0.9,1.5-1.4,2.6-1.4c0.5,0,1,0.1,1.4,0.3s0.7,0.4,0.9,0.7s0.4,0.6,0.4,1c0.1,0.3,0.1,0.7,0.1,1.4v5.1h-1.4v-5.1
			c0-0.6-0.1-1-0.2-1.3c-0.1-0.3-0.3-0.5-0.6-0.7s-0.6-0.3-1-0.3c-0.6,0-1.1,0.2-1.6,0.6c-0.4,0.4-0.7,1.1-0.7,2.2v4.6
			C540.7,70.7,539.5,70.7,539.5,70.7z M553.8,70.7v-1.1c-0.5,0.8-1.3,1.2-2.3,1.2c-0.7,0-1.3-0.2-1.8-0.5c-0.6-0.4-1-0.9-1.3-1.5
			c-0.3-0.7-0.5-1.4-0.5-2.3c0-0.8,0.1-1.6,0.4-2.3c0.3-0.7,0.7-1.2,1.2-1.6c0.6-0.4,1.2-0.5,1.9-0.5c0.5,0,0.9,0.1,1.3,0.3
			c0.4,0.2,0.7,0.5,1,0.8v-4.1h1.4v11.5h-1.3V70.7z M549.3,66.5c0,1.1,0.2,1.9,0.7,2.4c0.4,0.5,1,0.8,1.6,0.8s1.1-0.3,1.6-0.8
			c0.4-0.5,0.6-1.3,0.6-2.3c0-1.1-0.2-2-0.7-2.5c-0.4-0.5-1-0.8-1.6-0.8s-1.1,0.3-1.6,0.8C549.5,64.6,549.3,65.4,549.3,66.5
			L549.3,66.5z"/>
	</g>
	<g>
		<g>
			<rect x="313" y="9.8" class="st1" width="97.4" height="64.9"/>
			<path class="st0" d="M410.4,9.8v64.9H313V9.8H410.4 M412,8.3h-1.6H313h-1.6v1.6v64.9v1.6h1.6h97.4h1.6v-1.6v-65V8.3L412,8.3z"/>
		</g>
		<path class="st2" d="M410.4,74.9H313l-0.1-0.1v-65l0.1-0.1h97.4l0.1,0.1v64.9L410.4,74.9z M313.1,74.7h97.2V10h-97.2L313.1,74.7
			L313.1,74.7z"/>
		<polygon class="st3" points="361.6,17 360.8,19.4 358.2,19.4 360.3,21 359.5,23.5 361.6,22 363.7,23.5 362.9,21 365.1,19.4 
			362.5,19.4 		"/>
		<polygon class="st3" points="340,38.7 339.2,41.2 336.5,41.2 338.7,42.7 337.9,45.2 340,43.7 342.1,45.2 341.3,42.7 343.5,41.2 
			340.8,41.2 		"/>
		<polygon class="st3" points="383.3,38.7 382.5,41.2 379.8,41.2 381.9,42.7 381.1,45.2 383.3,43.7 385.4,45.2 384.6,42.7 
			386.8,41.2 384.1,41.2 		"/>
		<polygon class="st3" points="361.7,60.3 360.9,62.7 358.2,62.7 360.4,64.3 359.6,66.8 361.7,65.3 363.8,66.8 363,64.3 365.2,62.7 
			362.5,62.7 		"/>
		<polygon class="st3" points="372.4,19.8 371.6,22.3 368.9,22.3 371.1,23.8 370.3,26.3 372.4,24.8 374.6,26.3 373.8,23.8 
			375.9,22.3 373.2,22.3 		"/>
		<polygon class="st3" points="380.3,27.8 379.5,30.2 376.8,30.2 379,31.8 378.2,34.3 380.3,32.8 382.5,34.3 381.6,31.8 383.8,30.2 
			381.1,30.2 		"/>
		<polygon class="st3" points="380.5,49.3 379.6,51.8 377,51.8 379.1,53.4 378.3,55.9 380.5,54.3 382.6,55.9 381.7,53.4 383.9,51.8 
			381.3,51.8 		"/>
		<polygon class="st3" points="372.5,57.3 371.7,59.8 369,59.8 371.2,61.3 370.4,63.8 372.5,62.3 374.6,63.8 373.8,61.3 376,59.8 
			373.3,59.8 		"/>
		<polygon class="st3" points="350.9,57.3 350,59.7 347.4,59.7 349.6,61.3 348.8,63.8 350.9,62.3 353,63.8 352.2,61.3 354.3,59.7 
			351.7,59.7 		"/>
		<polygon class="st3" points="342.9,49.3 342.1,51.8 339.4,51.8 341.6,53.3 340.8,55.8 342.9,54.3 345.1,55.8 344.3,53.3 
			346.4,51.8 343.7,51.8 		"/>
		<polygon class="st3" points="342.9,27.8 342.1,30.2 339.4,30.2 341.6,31.8 340.8,34.3 342.9,32.8 345,34.3 344.2,31.8 346.4,30.2 
			343.7,30.2 		"/>
		<polygon class="st3" points="350.9,19.8 350,22.3 347.4,22.3 349.5,23.9 348.7,26.4 350.9,24.8 353,26.4 352.2,23.9 354.3,22.3 
			351.7,22.3 		"/>
	</g>
</g>
<g>
	<path d="M51.7,75c4.6,0,8.3-0.9,11-3.5c2.8-2.7,4.3-6.8,4.3-12.4l0,0V47.7V38l-0.6-11.4c-0.7-2.2-1.8-3.8-3.5-4.8l0,0h-0.1
		c-0.6-0.3-1.2-0.5-1.8-0.7l-10.5-4l0,0c-2.8-1.6-6.7-1.4-11.5,0.7l-11.1,4.7v8.2l-12.1-3.1l-4.5,1.9L3.9,75H51.7z"/>
	<path class="st4" d="M49.9,17c-2.8-1.7-6.7-1.4-11.5,0.7l-11.1,4.7V75h10.3c5,0,9-1,12-3.9c3.1-2.9,4.7-7.5,4.7-13.5V27.5
		C54.4,22.3,52.9,18.8,49.9,17 M44.9,59.6c0,2.6-0.5,4.5-1.6,5.8c-1,1.3-2.7,2-5,2.1l-3.6,0.2V26.9l3.6-1.3c2.4-0.9,4.2-0.9,5.1,0
		c1,0.9,1.5,2.6,1.5,5V59.6z M10.8,29.5L3.4,75H8l1.5-9.4l7.3-0.7L18.5,75h6.2l-9.4-47.4L10.8,29.5z M10.4,59.4L13,42.1h0.1
		l2.7,16.5L10.4,59.4z"/>
	<path d="M278,75v-6.5l-10.2-0.2V56.5l8.9-1.4l-0.2-0.2h0.2v-6.2l-8.9-0.7v-9.5l10.2-3.1l-0.3-0.2h0.3V29l-15.6-2v0.2l-6.1,2.2
		c-1.7-2.3-4-3.7-7.2-4.1l-9.6-1.2v0.2l-3.1,1.3v-1.8l-6.3-0.8v0l-8,3.4v-4.6l-6.7-0.9v0.2l0,0l-2.4,1v-1.5l-24.1-3.1v0.2l-2.3,1.1
		v-1.6l-7.9-1v0.2l-10.2,5.2l-2.3-6.9l-8.3-1.1v0.2l-4.5,2.4V13l-28-3.6v0.2l-3.7,2.2l0.6-2.8l-10.8-1.4v0.2L100,15l-2.2,10.7
		L94.1,5.5L82,4l0.1,0.4c0-0.2-0.1-0.3-0.1-0.3l-11.2,7.6L86.7,75H278z M145.6,38.8L135.1,38V26.7l6.1,0.6l4.4-2.1V38.8z
		 M135.1,65.3V50.5l3.8,0.2l6.7-1.6v16.5L135.1,65.3z M248.6,31.9c0.1,0,0.2,0,0.4,0.1l-0.4,0.1l-0.2-0.2L248.6,31.9z"/>
	<path class="st0" d="M107.6,75h-9.5L82,4l12,1.5l8.7,48.4h0.2l8.5-46.2l10.8,1.4L107.6,75z M125.4,9.5l28,3.6v8.3l-18.3-2V38
		l16,1.2v8.3l-16-0.9v18.7l18.3,0.4V75h-28C125.4,75,125.4,9.5,125.4,9.5z M157.9,13.6l8.3,1.1l12.4,36.8h0.2V16.3l7.9,1V75h-7.4
		l-12.6-36.4h-0.2V75h-8.6L157.9,13.6L157.9,13.6z M197.6,26.3l-8.7-1v-7.7l24.1,3.1V28l-8.1-0.9v47.7h-7.3V26.3z M236.4,63
		c0,1.7-0.3,3.2-0.8,4.7c-0.5,1.4-1.3,2.7-2.2,3.8c-0.9,1.1-2,1.9-3.3,2.6c-1.3,0.6-2.6,0.9-4,0.9s-2.8-0.3-4.1-1s-2.4-1.5-3.4-2.7
		c-1-1.1-1.8-2.5-2.4-4c-0.6-1.5-0.9-3.2-0.9-4.9V21l6.7,0.9v39.9c0,1.9,0.4,3.3,1.2,4.2c0.8,0.9,1.7,1.4,2.9,1.4
		c1.1,0,2.1-0.4,2.8-1.3c0.8-0.9,1.1-2.2,1.1-4.1V22.8l6.3,0.8L236.4,63L236.4,63z M239.5,24l9.6,1.2c6.7,0.9,10,6,10,15.5
		c0,2.8-0.4,5.2-1.1,7.2s-2,3.5-3.8,4.7l6,22.4h-5.9L249,53.7l-3.5-0.2V75h-6V24z M245.5,47.2l3.3,0.2c1,0.1,1.8,0,2.4-0.3
		c0.6-0.3,1.1-0.8,1.4-1.4c0.3-0.6,0.5-1.4,0.6-2.3c0.1-0.9,0.2-2,0.2-3.3c0-1.2-0.1-2.3-0.2-3.3c-0.1-1-0.3-1.8-0.7-2.5
		s-0.9-1.3-1.5-1.7s-1.5-0.7-2.6-0.8l-3.1-0.3v15.7H245.5z M262.4,27l15.6,2v6.2L267.8,34v14l8.9,0.7v6.2l-8.9-0.5v13.9l10.2,0.2V75
		h-15.6V27z"/>
	<polygon points="60.8,35.1 60.8,23.6 68.6,21.4 77.6,22.3 79.9,33.3 69.8,35.6 	"/>
	<polygon points="60.8,49.8 60.8,61.3 73.9,61.1 85.4,59.7 82.9,47.6 72.6,47.2 	"/>
	<polygon points="60.8,49.8 60.8,61.3 74.4,59.3 72.6,47.2 	"/>
	<polygon class="st0" points="79.9,33.3 77.6,22.3 68.6,21.4 70.3,32.6 	"/>
	<polygon class="st0" points="82.9,47.6 72.6,47.2 74.4,59.3 85.4,59.7 	"/>
	<polygon points="68.6,21.4 60.8,23.6 60.8,35.1 70.3,32.6 	"/>
</g>
</svg>
